# xmcd
#
# Track frame offsets: 
#        150
#        18900
#        29700
#        44100
#        62250
#        85800
#        95250
#        112050
#        123450
#        135000
#        148500
#
# Disc length: 2186 seconds
#
# Revision: 1
# Processed by: cddbd v1.5.2PL0 Copyright (c) Steve Scherf et al.
# Submitted via: ExactAudioCopyFreeDBPlugin 1.0
#
DISCID=8f08880b
DTITLE=Singers - Animagospel
DYEAR=1999
DGENRE=Gospel
TTITLE0=Jesus, oh what a wonderful child!
TTITLE1=Set on a freedom
TTITLE2=When the aints go marchin'in
TTITLE3=Let my people go (Go down, Moses!)
TTITLE4=Amazin grace
TTITLE5=Rivers of Babylon
TTITLE6=Oh happy day!
TTITLE7=Swung low, sweet chariot
TTITLE8=Joy
TTITLE9=Hark! The heral angels sing - Gloria
TTITLE10=Hail Holy Queen (Salve Regina)
EXTD=
EXTT0=
EXTT1=
EXTT2=
EXTT3=
EXTT4=
EXTT5=
EXTT6=
EXTT7=
EXTT8=
EXTT9=
EXTT10=
PLAYORDER=
